/* XPM */
static char *_408c8048b3647aadaa8f647c76479c5NoKx5jHfdkq0n4RF[] = {
/* columns rows colors chars-per-pixel */
"128 128 38 1 ",
"  c black",
". c gray11",
"X c #202020",
"o c gray22",
"O c #483818",
"+ c #6C4824",
"@ c #004040",
"# c #005858",
"$ c #006C6C",
"% c #007474",
"& c #484848",
"* c #4C4C4C",
"= c gray33",
"- c gray36",
"; c #646464",
": c gray44",
"> c #7C7C7C",
", c #880000",
"< c #BF0000",
"1 c #D90000",
"2 c #DF0000",
"3 c #FC0000",
"4 c #905C34",
"5 c #A0643C",
"6 c #BC7848",
"7 c #FCF400",
"8 c #008C8C",
"9 c #009C9C",
"0 c #00A4A4",
"q c #00CCCC",
"w c gray55",
"e c #989898",
"r c #B4B4B4",
"t c #C0C0C0",
"y c #D0D0D0",
"u c #ECECEC",
"i c gray99",
"p c white",
/* pixels */
"pppppppppppppppppppppppppppppppppppppppppppppppppppppppppppppppppppppppppppppppppppppppppppppppppppppppppppppppppppppppppppppppp",
"pppppppppppppppppppppppppppppppppppppppppppppppppppppppppppppppppppppppppppppppppppppppppppppppppppppppppppppppppppppppppppppppp",
"pppppppppppppppppppppppppppppppppppppppppppppppppppppppp      pi      ii    pppppppppppppppppppppppppppppppppppppppppppppppppppp",
"pppppppppppppppppppppppppppppppppppppppppppppppppppppppp      ii      ii    pppppppppppppppppppppppppppppppppppppppppppppppppppp",
"pppppppppppppppppppppppppppppppppppppppppppppppppppppiii      ii      ii      piiipppppppppppppppppppppppppppppppppppppppppppppp",
"ppppppppppppppppppppppppppppppppppppppppppppppppppppiiii      ii      ii      iiippppppppppppppppppppppppppppppppppppppppppppppp",
"pppppppppppppppppppppppppppppppppppppppppppppppppp    iiii22piii222222pipi<<iiii  pppppppppppppppppppppppppppppppppppppppppppppp",
"pppppppppppppppppppppppppppppppppppppppppppppppppp    iiii22iiii222222iiii<<iiii  pppppppppppppppppppppppppppppppppppppppppppppp",
"pppppppppppppppppppppppppppppppppppppppppppppppppp    piii22iiiiii  iiiiii<<iiii    pppppppppppppppppppppppppppppppppppppppppppp",
"pppppppppppppppppppppppppppppppppppppppppppppppppp    iiii22ipiiip  iiipii<<iiii    pppppppppppppppppppppppppppppppppppppppppppp",
"pppppppppppppppppppppppppppppppppppppppppppppppppp    33  2222  33  <<  22<<  33    pppppppppppppppppppppppppppppppppppppppppppp",
"pppppppppppppppppppppppppppppppppppppppppppppppppp    33  2222  33  <<  22<<  33    pppppppppppppppppppppppppppppppppppppppppppp",
"pppppppppppppppppppppppppppppppppppppppppppppppp    333322  33  33  <<  22  333333  pppppppppppppppppppppppppppppppppppppppppppp",
"pppppppppppppppppppppppppppppppppppppppppppppppp    333322  33  33  <<  22  333333  pppppppppppppppppppppppppppppppppppppppppppp",
"ppppppppppppppppppppppppppppppppppppppppppuupppp    3322222233  22  <<  2222333333  ppppppeepppppppppppppppppppppppppppppppppppp",
"ppppppppppppppppppppppppppppppppppppppppppuupppp    3322222233  22  <<  2222333333  ppppppeepppppppppppppppppppppppppppppppppppp",
"ppppppppppppppppppppppppppppppppppppppppppyypppp    33    2222  2222<<  2222    33    ppppeepppppppppppppppppppppppppppppppppppp",
"ppppppppppppppppppppppppppppppppppppppppppyypppp    33    2222  2222<<  2222    33    ppppeepppppppppppppppppppppppppppppppppppp",
"ppppppppppppppppppppppppppppppppppppppppppyypppp    33  22                  11  33    ppppeepppppppppppppppppppppppppppppppppppp",
"ppppppppppppppppppppppppppppppppppppppppppyypppp    33  22                  11  33    ppppeepppppppppppppppppppppppppppppppppppp",
"pppppppppppppppppppppppppppppppppppppppp;;yy==pp    3322  pi7733  33  3377rr  1133    pp;;>>==pppppppppppppppppppppppppppppppppp",
"pppppppppppppppppppppppppppppppppppppppp;;yy==pp    3322  ii7733  33  3377rr  1133    pp;;>>==pppppppppppppppppppppppppppppppppp",
"pppppppppppppppppppppppppppppppppppppppp>>tt==pp    3322          22          1133    pp;;>>==pppppppprrpppppppppppppppppppppppp",
"pppppppppppppppppppppppppppppppppppppppp>>tt==pp    3322          22          1133    pp;;>>==pppppppprrpppppppppppppppppppppppp",
"ppppppppppppppppppppppppppppppppppppppppeerr==pp    332222  222222  <<<<<<  333333    pp;;>>==pppppppprrpppppppppppppppppppppppp",
"ppppppppppppppppppppppppppppppppppppppppeerr==pp    332222  222222  <<<<<<  333333    pp;;>>==pppppppprrpppppppppppppppppppppppp",
"ppppppppppppppppppppppppppppppppppppppppeerr;;pp    33  22  <<<<<<111111<<  33  33    pp;;>>;;pppppp;;rrpppppppppppppppppppppppp",
"ppppppppppppppppppppppppppppppppppppppppeerr;;pp    33  22  <<<<<<111111<<  33  33    pp;;>>;;pppppp;;rrpppppppppppppppppppppppp",
"pppppppppppppppppppppppppppppppppppppp;;eerr;;oo    33    1111  <<  <<  3333    33      ;;>>;;oopppprrrrpppppppppppppppppppppppp",
"pppppppppppppppppppppppppppppppppppppp;;eerr;;oo    33    1111  <<  <<  3333    33      ;;>>;;oopppprrrrpppppppppppppppppppppppp",
"pppppppppppppppppppppppp--eerreepppppp;;eerr;;oo    333311<<  oooo,,oooo  33333333  ..  ;;>>;;oopp;;rreeppeepppppppppppppppppppp",
"pppppppppppppppppppppppp--eerreepppppp;;eerr;;oo    333311<<  oooo,,oooo  33333333  ..  ;;>>;;oopp;;rreeppeepppppppppppppppppppp",
"ppppppppppppppppeepppppp;;****::**::**;;eerr;;&&      33    33,,,,,,,,,,33    33        ;;>>;;&&.XXX        pppppppppppppppppppp",
"ppppppppppppppppeepppppp;;****::**::**;;eerr;;&&      33    33,,,,,,,,,,33    33        ;;>>;;&&XXXX        pppppppppppppppppppp",
"pppppppppppppppp;;eepp**::**ww::::::ww::>>ee;;XX      3333    2222  3333    3333        &&>>;;          XXXX    pppppppppppppppp",
"pppppppppppppppp;;eepp**::**ww::::::ww::>>ee;;XX      3333    2222  3333    3333        &&>>;;          XXXX    pppppppppppppppp",
"pppppppppppppppp;;::**::::wwwwwwwwwwww::ww::::          3333  11      33  3333            XXXXXXXXXXXXooXXooXXXX  pppppppppppppp",
"pppppppppppppppp;;::**::::wwwwwwwwwwww::ww::::          3333  11      33  3333            XXXXXXXXXXXXooXXooXXXX  pppppppppppppp",
"pppppppppppppppp::**wwwwwwww::::ww::::::**::::            333333333333333333              oooooooo**ooooooooooooXX  pppppppppppp",
"pppppppppppppppp::**wwwwwwww::::ww::::::**::::            333333333333333333              oooooooo**ooooooooooooXX  pppppppppppp",
"pppppppppppppp::::ww::wwww::wwww::********oooo            ..                              ee**oo**oooo**ooooooooXXXX  pppppppppp",
"pppppppppppppp::::ww::wwww::wwww::********oooo            ..                              ee**oo**oooo**ooooooooXXXX  pppppppppp",
"ppppppppppwwwwwwwwwwwwww::::::::::**oooooo**oo                                            >>oooooooo**oooooo::**::::**oopppppppp",
"ppppppppppwwwwwwwwwwwwww::::::::::**oooooo**oo                                            >>oooooooo**oooooo::**::::**oopppppppp",
"ppppppppww**ooooXXooXXoo**::**oo**oo**oo**oooo                                          >>;;oooooooooo**oo      XXXXXX  ooXXpppp",
"ppppppppww**ooooXXooXXoo**::**oo**oo**oo**oooo                                          >>;;oooooooooo**oo      XXXXXX  ooXXpppp",
"ppppppppoowwwwww::::::**XX    ooXX**oooooo**oo**oo                                      ====    XXoo**XX    ..  ......      pppp",
"ppppppppoowwwwww::::::**XX    ooXX**oooooo**oo**oo                                      ====    XXoo**XX    ..  ......      pppp",
"pppppp**::oo    XX  XX  ooXX....    ooooooXXooXXooooXX  XXoo    XXXX      **      XXooooXXXXXXXXXXooXX      ..............  pppp",
"pppppp**::oo    XX  XX  ooXX....    ooooooXXooXXooooXX  XXoo    XXXX      **      XXooooXXXXXXXXXXooXX      ..............  pppp",
"pppp**ooXX::::******oooo    XX..      XXXXooooooooXXooooXXooooXXooXX    XXoo****XXooooXXooooooXXooXX    ....                XXpp",
"pppp**ooXX::::******oooo    XX..      XXXXooooooooXXooooXXooooXXooXX    XXoo****XXooooXXooooooXXooXX    ....                XXpp",
"ppppXXoo**::::::::****oooo        ..      XXXXooXXooooXXooooXXooooXX      oo::ooooooXXooooXXooooXX  ..    oo  ........    ooXXpp",
"ppppXXoo**::::::::****oooo        ..      XXXXooXXooooXXooooXXooooXX      oo::ooooooXXooooXXooooXX  ..    oo  ........    ooXXpp",
"ppppoooo**ww::::**::**ooXX  ..          XX  XXXXooooXXooooXXooooXX      XXoo::ooooXXooooXXooXXXX    ..    XXoo********ooooXX  pp",
"ppppoooo**ww::::**::**ooXX  ..          XX  XXXXooooXXooooXXooooXX      XXoo::ooooXXooooXXooXXXX    ..    XXoo********ooooXX  pp",
"ppppXXoo**wwww::ww****oooo    ..      ..                              ......                      ..  XXXXXXXX            XX  pp",
"ppppXXoo**wwww::ww****oooo    ..      ..                              ......                      ..  XXXXXXXX            XX  pp",
"ppppooXX::::ww**ww::**XXoo                ..  ..  ..  ..  ..  ..  ....    ..  ..  ..  ..  ..  ..  ..  XXoooooo**XX**oo  XX  pppp",
"ppppooXX::::ww**ww::**XXoo                ..  ..  ..  ..  ..  ..  ....    ..  ..  ..  ..  ..  ..  ..  XXoooooo**XX**oo  XX  pppp",
"ppppppoo**wwww**ww****oooo              XXXXXXXX..XXXX..XXXX..XXXX..XX..XXXXXXXXXX..XX            ..    oooo**XXoooo  oo    pppp",
"ppppppoo**wwww**ww****oooo              XXXXXXXX..XXXX..XXXX..XXXX..XX..XXXXXXXXXX..XX            ..    oooo**XXoooo  oo    pppp",
"ppppppXXww::ww::ww::::oooo              XX..XXXXoooooooooooooooooooo..XXXXXXooooooooXXXXXXXX          XXoooooooooooo  XX    pppp",
"ppppppXXww::ww::ww::::oooo              XX..XXXXoooooooooooooooooooo..XXXXXXooooooooXXXXXXXX          XXoooooooooooo  XX    pppp",
"ppppppoo::XXXXXXXXXX**oooo              ..XXXXooooXXXXXXXXXXXXXXXX..XX..XXooXXXXXXXXXXXXXXXX        ..XXooXXooXXXX  XX    pppppp",
"ppppppoo::XXXXXXXXXX**oooo              ..XXXXooooXXXXXXXXXXXXXXXX..XX..XXooXXXXXXXXXXXXXXXX        ..XXooXXooXXXX  XX    pppppp",
"pppppp    XX****oooo##$$998888$$##        XXXX....XX..XX            XXXX..XX                      ..  ..  XXXXXX        ..pppppp",
"pppppp    XX****oooo##$$998888$$##        XXXX....XX..XX            XXXX..XX                      ..  ..  XXXXXX        ..pppppp",
"ppppXX**  XX****oo##%%880000####$$##..XXXX..XXXXXX..XXXX..XXXX..XXXX..XX..XX..XXXX..XXXX..XX      ..      ......  ..  ..  pppppp",
"ppppXX**  XX****oo##%%880000####$$##..XXXX..XXXXXX..XXXX..XXXX..XXXX..XX..XX..XXXX..XXXX..XX      ..      ......  ..  ..  pppppp",
"pppp    XX**::oo####%%%%qq00%%88##%%@@XX..XXXXXXoooooo&&&&oo&&ooooooooXXooXXXXXXXXooXXXXXX..XX..              ##$$$$$$$$$$pppppp",
"pppp    XX**::oo####%%%%qq00%%88##%%@@XX..XXXXXXoooooo&&&&oo&&ooooooooXXooXXXXXXXXooXXXXXX..XX..              ##$$$$$$$$$$pppppp",
"pppp    oo::**oo####%%88qq0088%%@@%%##..XX..XXXX..XXXXXXXXooXXXXXXXXXXXXXXooXXXX                  ..    XX  ####$$88%%%%$$##pppp",
"pppp    oo::**oo####%%88qq0088%%@@%%##..XX..XXXX..XXXXXXXXooXXXXXXXXXXXXXXooXXXX                  ..    XX  ####$$88%%%%$$##pppp",
"pppp  XXoooo::oo####%%%%99qq%%88##$$##@@          ..XX    XXXXooXXooXXXXXX    XX**::**::ooooXXoo  ..      @@####$$$$$$########pp",
"pppp  XXoooo::oo####%%%%99qq%%88##$$##@@          ..XX    XXXXooXXooXXXXXX    XX**::**::ooooXXoo  ..      @@####$$$$$$########pp",
"pppp    XXooXX**##%%##%%88qq00%%##@@$$@@XXXX            ..                XXooooXXXX    XX      XX  ..    @@################@@pp",
"pppp    XXooXX**##%%##%%88qq00%%##@@$$@@XXXX            ..                XXooooXXXX    XX      XX  ..    @@################@@pp",
"pppppp  XXXXooXX##%%##$$8800qq%%88@@$$##          ..        ..XX      XXoo    XXoo::****XXXXXX        ..  @@############@@##XXpp",
"pppppp  XXXXooXX##%%##$$8800qq%%88@@$$##          ..        ..XX      XXoo    XXoo::****XXXXXX        ..  @@############@@##XXpp",
"pppppp      XXoo  ####%%%%88qq88%%##@@##@@XXXXXX  XX  ....  ..      XX    XXoo::****::::**ooXXXX  ....  XXXX@@########@@##@@XXpp",
"pppppp      XXoo  ####%%%%88qq88%%##@@##@@XXXXXX  XX  ....  ..      XX    XXoo::****::::**ooXXXX  ....  XXXX@@########@@##@@XXpp",
"ppppppppXX      oo##%%##%%880000%%##@@$$##XXXXXX  XX      ........        XXoo******::****ooooXX      ..XXXX@@@@####@@##@@XX  pp",
"ppppppppXX      oo##%%##%%880000%%##@@$$##XXXXXX  XX      ........        XXoo******::****ooooXX      ..XXXX@@@@####@@##@@XX  pp",
"pppppppppp  XXXX55##$$##%%%%88XXooXXXXXX##@@XXXX  XX    oo..    ....      XXoo****::::******XXXX        ooXXoo##@@@@@@@@XXXX  pp",
"pppppppppp  XXXX55##$$##%%%%88XXooXXXXXX##@@XXXX  XX    oo..    ....      XXoo****::::******XXXX        ooXXoo##@@@@@@@@XXXX  pp",
"pppppppppppp  4466@@####XXXXXX@@$$00##@@XX@@XXXX  XX      ..  ....>>  XX  XXXX::**::::::**ooooXX      ..--ooXX@@XXooXXXXXX  pppp",
"pppppppppppp  4466@@####XXXXXX@@$$00##@@XX@@XXXX  XX      ..  ....>>  XX  XXXX::**::::::**ooooXX      ..--ooXX@@XXooXXXXXX  pppp",
"pppppppppppppp6666@@##XX@@##@@%%00qq00##@@XXXXXX  XX    oo..  ....XX      XXoo::****::::**ooooXX      ..&&XXooooooooXXXXXX  pppp",
"pppppppppppppp6666@@##XX@@##@@%%00qq00##@@XXXXXX  XX    oo..  ....XX      XXoo::****::::**ooooXX      ..&&XXooooooooXXXXXX  pppp",
"pppppppppppppp++55@@XXXX%%%%@@##99qq99####XXXXXX  XX          ..XX..      XXoo****::::::****XXXX      ..XXooooXXooooXXXX  pppppp",
"pppppppppppppp++55@@XXXX%%%%@@##99qq99####XXXXXX  XX          ..XX..      XXoo****::::::****XXXX      ..XXooooXXooooXXXX  pppppp",
"ppppppppppppppppOOOOXX##%%XXXXXXXXXXXXXXXXooXXXX  XX      ..    ..XX      XXoo****::ww::**ooooXX    oo..XXXXooooXXXXXX..pppppppp",
"ppppppppppppppppOOOOXX##%%XXXXXXXXXXXXXXXXooXXXX  XX      ..    ..XX      XXoo****::ww::**ooooXX    oo..XXXXooooXXXXXX..pppppppp",
"ppppppppppppppppppppoo##XXXXXXXXXXXXXXXXXXXXXXXX  XX      ..  ....>>  XX  XXXXww**::ww::**ooXXXX      ..;;@@XX..XXXX    pppppppp",
"ppppppppppppppppppppoo##XXXXXXXXXXXXXXXXXXXXXXXX  XX      ..  ....>>  XX  XXXXww**::ww::**ooXXXX      ..;;@@XX..XXXX    pppppppp",
"pppppppppppppppppppp  XXooXXXX@@##88qq99@@@@..XX  XX    oo..    ..--      XXoo  XXXXXXXXXX          oo..&&@@@@XXXX..XX  pppppppp",
"pppppppppppppppppppp  XXooXXXX@@##88qq99@@@@..XX  XX    oo..    ..--      XXoo  XXXXXXXXXX          oo..&&@@@@XXXX..XX  pppppppp",
"pppppppppppppppppppp  XX..XX$$##@@$$qq99####@@XX  XX          ......        XXoo**::**::**XXXX    ..  ....@@XXXX..XX    pppppppp",
"pppppppppppppppppppp  XX..XX$$##@@$$qq99####@@XX  XX          ......        XXoo**::**::**XXXX    ..  ....@@XXXX..XX    pppppppp",
"pppppppppppppppppppp  XXXX%%%%XXXXXXXXXXXXXXXXoo  XX      ..  ....XX..    XXoooooooo**XXooooooXXXX      ..@@XXXXXXXX    pppppppp",
"pppppppppppppppppppp  XXXX%%%%XXXXXXXXXXXXXXXXoo  XX      ..  ....XX..    XXoooooooo**XXooooooXXXX      ..@@XXXXXXXX    pppppppp",
"pppppppppppppppppppp    @@%%XXXXXXXXXXXXXXXXooXXXXXX      ........  ..    XXXXXXooooooooooooXXXXXX      ..XXXX..XX..    pppppppp",
"pppppppppppppppppppp    @@%%XXXXXXXXXXXXXXXXooXXXXXX      ........  ..    XXXXXXooooooooooooXXXXXX      ..XXXX..XX..    pppppppp",
"pppppppppppppppppppp    @@XXooXXXX..XX88##@@..XXXXXX....  ......    ..      XXoooooo**XX**XXooXXXX        XX..XX        pppppppp",
"pppppppppppppppppppp    @@XXooXXXX..XX88##@@..XXXXXX....  ......    ..      XXoooooo**XX**XXooXXXX        XX..XX        pppppppp",
"pppppppppppppppppp      XXXX..88$$##..##@@@@..XXXXXX    ..    ..      ..                              ....              pppppppp",
"pppppppppppppppppp      XXXX..88$$##..##@@@@..XXXXXX    ..    ..      ..                              ....              pppppppp",
"pppppppppppppppppp      XXXX@@$$@@@@XX..XX@@@@@@..XX..............  XXXXXXXXoo::::::oo::**ooooooXX                      pppppppp",
"pppppppppppppppppp      XXXX@@$$@@@@XX..XX@@@@@@..XX..............  XXXXXXXXoo::::::oo::**ooooooXX                      pppppppp",
"pppppppppppppppppp      XXXX@@@@@@..XX..@@@@@@@@XX........  ....    XX    XX  XX              ........                  pppppppp",
"pppppppppppppppppp      XXXX@@@@@@..XX..@@@@@@@@XX........  ....    XX    XX  XX              ........                  pppppppp",
"pppppppppppppppp          ..XX..@@@@@@XX@@@@....    ............        XXXX****::::****XXXX                            pppppppp",
"pppppppppppppppp          ..XX..@@@@@@XX@@@@....    ............        XXXX****::::****XXXX                            pppppppp",
"pppppppppppppppp              XX@@@@@@..XX..XX  XX          ..        eeoooooo::::::****ooXX        ==                pppppppppp",
"pppppppppppppppp              XX@@@@@@..XX..XX  XX          ..        eeoooooo::::::****ooXX        ==                pppppppppp",
"pppppppppppppp                          ::ooXXXXXXXXXXXX              ;;XXXXXX  XX                XXpppppppppppppppppppppppppppp",
"pppppppppppppp                          ::ooXXXXXXXXXXXX              ;;XXXXXX  XX                XXpppppppppppppppppppppppppppp",
"pppppppppppppp        pppppppppppppppppp::::****ooXXXXXXXX        &&&&&&&&  **ww::ww********oooo  &&&&&&&&&&&&&&&&&&&&&&====pppp",
"pppppppppppppp        pppppppppppppppppp::::****ooXXXXXXXX        &&&&&&&&  **ww::ww********oooo  &&&&&&&&&&&&&&&&&&&&&&====pppp",
"pppppppppppppppppppppppppppppppppppppp;;;;----====&&&&&&&&ooooooXXXXXXoo::ww**::ww**XXXXXXXXXXXXoo    oooooooooooooooooo&&====pp",
"pppppppppppppppppppppppppppppppppppppp;;;;----====&&&&&&&&ooooooXXXXXXoo::ww**::ww**XXXXXXXXXXXXoo    oooooooooooooooooo&&====pp",
"pppppppppppppppppppppppppppppppppppppppppppppppp;;;;;;--==&&&&&&ooXX**::ww**wwwwwwww::::******XXXXXX  XXXXXXXXoooooo&&&&======pp",
"pppppppppppppppppppppppppppppppppppppppppppppppp;;;;;;--==&&&&&&ooXX**::ww**wwwwwwww::::******XXXXXX  XXXXXXXXoooooo&&&&======pp",
"pppppppppppppppppppppppppppppppppppppppppppppppppppppp==========&&&&oo::::wwww::::******XXXXXXXXooXX  XXoooooooooo&&&&&&&&==--pp",
"pppppppppppppppppppppppppppppppppppppppppppppppppppppp==========&&&&oo::::wwww::::******XXXXXXXXooXX  XXoooooooooo&&&&&&&&==--pp",
"pppppppppppppppppppppppppppppppppppppppppppppppppppppppppppppppp====**::ww::::ww**::ww::::::****XXXX  oooooo&&&&==&&&&====--pppp",
"pppppppppppppppppppppppppppppppppppppppppppppppppppppppppppppppp====**::ww::::ww**::ww::::::****XXXX  oooooo&&&&==&&&&====--pppp"
};
