/* XPM */
static char *_510265e7972459c9490ac14d410abb9ZFPVxV0TBNPTrkZM[] = {
/* columns rows colors chars-per-pixel */
"128 128 37 1 ",
"  c black",
". c #070707",
"X c #0F1700",
"o c #2B2B00",
"O c #2B230B",
"+ c #1B1B23",
"@ c #2A2A2A",
"# c #2B2B33",
"$ c #5A0202",
"% c #471B00",
"& c #572707",
"* c #47371A",
"= c #672F0B",
"- c #773B13",
"; c #3B3B47",
": c #024F4F",
"> c #504E4C",
", c #4B4B57",
"< c #5B5B67",
"1 c #6C6C6C",
"2 c #6F6F7B",
"3 c #9C0202",
"4 c #E50808",
"5 c #83431B",
"6 c #934F23",
"7 c #7F7F8B",
"8 c #028787",
"9 c #02B6B6",
"0 c #02D9D9",
"q c #22FEFE",
"w c #7EFEFA",
"e c #8F8F9B",
"r c gray62",
"t c #A3A3AB",
"y c gray81",
"u c #C3FEFE",
"i c white",
/* pixels */
"iiiiiiiiiiiiiiiiiiiiiiiiiiiiiiiiiiiiiiiiiiiiiiiiiiiiiiiiiiiiiiiiiiiiiiiiiiiiiiiiiiiiiiiiiiiiiiiiiiiiiiiiiiiiiiiiiiiiiiiiiiiiiiii",
"iiiiiiiiiiiiiiiiiiiiiiiiiiiiiiiiiiiiiiiiiiiiiiiiiiiiiiiiiiiiiiiiiiiiiiiiiiiiiiiiiiiiiiiiiiiiiiiiiiiiiiiiiiiiiiiiiiiiiiiiiiiiiiii",
"iiiiiiiiiiiiiiiiiiiiiiiiiiiiiiiiiiiiiiiiiiiiiiiiii##;;##iiii..............iiiiiiiiiiiiiiiiiiiiiiiiiiiiiiiiiiiiiiiiiiiiiiiiiiiiii",
"iiiiiiiiiiiiiiiiiiiiiiiiiiiiiiiiiiiiiiiiiiiiiiiiii##;;##iiii..............iiiiiiiiiiiiiiiiiiiiiiiiiiiiiiiiiiiiiiiiiiiiiiiiiiiiii",
"iiiiiiiiiiiiiiiiiiiiiiiiiiiiiiiiiiiiiiiiiiiiiiiiii++++iiii..@@@@@@@@@@@@@@....iiiiiiiiiiiiiiiiiiiiiiiiiiiiiiiiiiiiiiiiiiiiiiiiii",
"iiiiiiiiiiiiiiiiiiiiiiiiiiiiiiiiiiiiiiiiiiiiiiiiii++++iiii..@@@@@@@@@@@@@@....iiiiiiiiiiiiiiiiiiiiiiiiiiiiiiiiiiiiiiiiiiiiiiiiii",
"iiiiiiiiiiiiiiiiiiiiiiiiiiiiiiiiiiiiiiiiiiiiiiiiii22iiii..@@@@>>>>>>>>@@@@@@....iiiiiiiiiiiiiiiiiiiiiiiiiiiiiiiiiiiiiiiiiiiiiiii",
"iiiiiiiiiiiiiiiiiiiiiiiiiiiiiiiiiiiiiiiiiiiiiiiiii22iiii..@@@@>>>>>>>>@@@@@@....iiiiiiiiiiiiiiiiiiiiiiiiiiiiiiiiiiiiiiiiiiiiiiii",
"iiiiiiiiiiiiiiiiiiiiiiiiiiiiiiiiiiiiiiiiiiiiiiiiiittii..@@@@>>>>1111>>>>@@@@@@..iiiiiiiiiiiiiiiiiiiiiiiiiiiiiiiiiiiiiiiiiiiiiiii",
"iiiiiiiiiiiiiiiiiiiiiiiiiiiiiiiiiiiiiiiiiiiiiiiiiittii..@@@@>>>>1111>>>>@@@@@@..iiiiiiiiiiiiiiiiiiiiiiiiiiiiiiiiiiiiiiiiiiiiiiii",
"iiiiiiiiiiiiiiiiiiiiiiiiiiiiiiii999988888888iiiiiieeii..@@@@>>111111>>>>@@@@@@..iiiiii88ww888888iiiiiiiiiiiiiiiiiiiiiiiiiiiiiiii",
"iiiiiiiiiiiiiiiiiiiiiiiiiiiiiiii999988888888iiiiiieeii..@@@@>>111111>>>>@@@@@@..iiiiii88ww888888iiiiiiiiiiiiiiiiiiiiiiiiiiiiiiii",
"iiiiiiiiiiiiiiiiiiiiiiiiiiiiiiwwuu@@..>>@@..::iiii77....@@@@>>>>11>>>>>>@@@@....iiii::@@..>>@@..::iiiiiiiiiiiiiiiiiiiiiiiiiiiiii",
"iiiiiiiiiiiiiiiiiiiiiiiiiiiiiiwwuu@@..>>@@..::iiii77....@@@@>>>>11>>>>>>@@@@....iiii::@@..>>@@..::iiiiiiiiiiiiiiiiiiiiiiiiiiiiii",
"iiiiiiiiiiiiiiiiiiiiiiiiiiii9999::@@>>11>>@@@@::ii22....@@@@@@>>>>>>>>@@..........ii....>>11>>@@@@@@iiiiiiiiiiiiiiiiiiiiiiiiiiii",
"iiiiiiiiiiiiiiiiiiiiiiiiiiii9999::@@>>11>>@@@@::ii22....@@@@@@>>>>>>>>@@..........ii....>>11>>@@@@@@iiiiiiiiiiiiiiiiiiiiiiiiiiii",
"iiiiiiiiiiiiiiiiiiiiiiiiiiii8888@@..>>>>**@@@@::ii<<..%%@@..@@@@@@@@@@......%%....ii....>>>>**@@@@::iiiiiiiiiiiiiiiiiiiiiiiiiiii",
"iiiiiiiiiiiiiiiiiiiiiiiiiiii8888@@..>>>>**@@@@::ii<<..%%@@..@@@@@@@@@@......%%....ii....>>>>**@@@@::iiiiiiiiiiiiiiiiiiiiiiiiiiii",
"iiiiiiiiiiiiiiiiiiiiiiiiii33$$44::::@@@@@@..::iiii,,%%&&&&..............<<,,&&....ii..::@@@@@@..::$$iiiiiiiiiiiiiiiiiiiiiiiiiiii",
"iiiiiiiiiiiiiiiiiiiiiiiiii33$$44::::@@@@@@..::iiii,,%%&&&&..............<<,,&&....ii..::@@@@@@..::$$iiiiiiiiiiiiiiiiiiiiiiiiiiii",
"iiiiiiiiiiiiiiiiiiiiiiii334433$$::::@@::::::>>iiii##..    ==----5566,,22,,    --..ii..::@@::::::4433iiiiiiiiiiiiiiiiiiiiiiiiiiii",
"iiiiiiiiiiiiiiiiiiiiiiii334433$$::::@@::::::>>iiii##..    ==----5566,,22,,    --..ii..::@@::::::4433iiiiiiiiiiiiiiiiiiiiiiiiiiii",
"iiiiiiiiiiiiiiiiiiiiii3333$$@@**@@8888@@::@@11ii......&&                      ==........::@@@@**3333$$iiiiiiiiiiiiiiiiiiiiiiiiii",
"iiiiiiiiiiiiiiiiiiiiii3333$$@@**@@8888@@::@@11ii......&&                      ==........::@@@@**3333$$iiiiiiiiiiiiiiiiiiiiiiiiii",
"iiiiiiiiiiiiiiiiiiiiii3333$$$$**@@0000::::**..........&&,,                --==--......@@::@@::@@33$$$$iiiiiiiiiiiiiiiiiiiiiiiiii",
"iiiiiiiiiiiiiiiiiiiiii3333$$$$**@@0000::::**..........&&,,                --==--......@@::@@::@@33$$$$iiiiiiiiiiiiiiiiiiiiiiiiii",
"iiii****11rr>>iiiiiiii$$$$$$..$$$$0000::::**............==<<<<==    ==22--....==......@@::@@::**$$$$$$iiiiiiiiii@@@@@@@@@@iiiiii",
"iiii****11rr>>iiiiiiii$$$$$$..$$$$0000::::**............==<<<<==    ==22--....==......@@::@@::**$$$$$$iiiiiiiiii@@@@@@@@@@iiiiii",
"iiiiii@@@@@@uu>>>>@@@@  ..$$$$$$..8800::8888..........&&....,,22    22==....==........::::@@::::$$..$$ii****@@@@@@@@@@..iiiiiiii",
"iiiiii@@@@@@uu>>>>@@@@  ..$$$$$$..8800::8888..........&&....,,22    22==....==........::::@@::::$$..$$ii****@@@@@@@@@@..iiiiiiii",
"iiiiiiii@@..@@**@@@@@@@@@@@@..$$00uu000099uu88..........==....66    66==..............888888::8888$$..11>>@@@@..@@..@@iiiiiiiiii",
"iiiiiiii@@..@@**@@@@@@@@@@@@..$$00uu000099uu88..........==....66    66==..............888888::8888$$..11>>@@@@..@@..@@iiiiiiiiii",
"iiiiiiii..@@@@@@@@@@@@@@@@@@..@@88::::::::::::::......@@......66    55....@@@@........::::@@::::::::rr@@@@@@@@........iiiiiiiiii",
"iiiiiiii..@@@@@@@@@@@@@@@@@@..@@88::::::::::::::......@@......66    55....@@@@........::::@@::::::::rr@@@@@@@@........iiiiiiiiii",
"iiiiii@@@@>>@@..@@............@@@@::::::::::::::......@@@@....--    --....@@@@......@@@@@@@@@@@@@@@@@@..@@....@@..@@....iiiiiiii",
"iiiiii@@@@>>@@..@@............@@@@::::::::::::::......@@@@....--    --....@@@@......@@@@@@@@@@@@@@@@@@..@@....@@..@@....iiiiiiii",
"ii..yy>>11@@@@@@@@@@@@..@@....@@@@**@@::@@::@@@@@@......@@@@..66    55..@@@@........@@..@@@@@@@@..@@@@@@@@@@@@..@@........@@iiii",
"ii..yy>>11@@@@@@@@@@@@..@@....@@@@**@@::@@::@@@@@@......@@@@..66    55..@@@@........@@..@@@@@@@@..@@@@@@@@@@@@..@@........@@iiii",
"ii@@@@uu>>@@..@@@@@@..@@@@..@@@@@@**@@**********@@@@......@@..--    --..@@........@@@@@@@@@@@@@@@@@@..@@@@..@@@@..@@..@@@@..iiii",
"ii@@@@uu>>@@..@@@@@@..@@@@..@@@@@@**@@**********@@@@......@@..--    --..@@........@@@@@@@@@@@@@@@@@@..@@@@..@@@@..@@..@@@@..iiii",
"iiii..@@>>**@@**@@..@@@@......@@@@**>>@@@@>>@@@@@@@@@@@@......--    --..........@@@@@@@@@@@@@@@@@@@@....@@@@@@..@@@@..@@@@iiiiii",
"iiii..@@>>**@@**@@..@@@@......@@@@**>>@@@@>>@@@@@@@@@@@@......--    --..........@@@@@@@@@@@@@@@@@@@@....@@@@@@..@@@@..@@@@iiiiii",
"iiiiii..@@@@>>@@>>>>>>@@@@>>>>11>>>>>>>>>>>>>>>>**>>@@::::@@ooooXXXX&&OOoo****>>@@@@@@@@@@@@@@@@@@@@>>11>>>>>>>>>>**@@@@..@@iiii",
"iiiiii..@@@@>>@@>>>>>>@@@@>>>>11>>>>>>>>>>>>>>>>**>>@@::::@@ooooXXXX&&OOoo****>>@@@@@@@@@@@@@@@@@@@@>>11>>>>>>>>>>**@@@@..@@iiii",
"iiii......@@@@1111@@1111>>@@@@ww99::@@@@@@..@@..@@..@@@@..@@@@@@..@@>>@@..@@@@..@@@@@@..@@@@@@**1111>>@@@@ww99::@@..**@@..iiiiii",
"iiii......@@@@1111@@1111>>@@@@ww99::@@@@@@..@@..@@..@@@@..@@@@@@..@@>>@@..@@@@..@@@@@@..@@@@@@**1111>>@@@@ww99::@@..**@@..iiiiii",
"iiii........11rr>>11rr@@@@@@99::..::::@@@@@@..@@..@@@@..@@..@@......>>@@@@@@..@@..@@..@@@@..**1111@@@@@@99::..::::@@@@@@@@..iiii",
"iiii........11rr>>11rr@@@@@@99::..::::@@@@@@..@@..@@@@..@@..@@......>>@@@@@@..@@..@@..@@@@..**1111@@@@@@99::..::::@@@@@@@@..iiii",
"ii....@@..1111@@1111@@@@@@..88......::@@..@@@@@@..@@..@@..@@..@@..@@>>@@@@..@@@@..@@@@..@@@@1111**@@@@..88......::@@..@@..@@iiii",
"ii....@@..1111@@1111@@@@@@..88......::@@..@@@@@@..@@..@@..@@..@@..@@>>@@@@..@@@@..@@@@..@@@@1111**@@@@..88......::@@..@@..@@iiii",
"ii....@@>>>>@@>>>>@@ww99::@@::::..::::@@88::::..@@@@..@@@@..@@......>>>>@@..@@..@@..@@..@@@@>>@@ww99::@@::::..::::@@88::::..@@ii",
"ii....@@>>>>@@>>>>@@ww99::@@::::..::::@@88::::..@@@@..@@@@..@@......>>>>@@..@@..@@..@@..@@@@>>@@ww99::@@::::..::::@@88::::..@@ii",
"iiii@@..>>>>**>>>>99::..::::@@::::::..88::..::::@@..@@..@@@@......@@@@>>@@@@@@..@@@@..@@..>>>>99::..::::@@::::::..88::..::::@@ii",
"iiii@@..>>>>**>>>>99::..::::@@::::::..88::..::::@@..@@..@@@@......@@@@>>@@@@@@..@@@@..@@..>>>>99::..::::@@::::::..88::..::::@@ii",
"iiii@@>>>>@@>>>>@@88......::..@@..@@@@::......::@@@@..@@@@..@@....@@@@>>@@@@..@@@@..@@..>>>>@@88......::..@@..@@@@::......::@@ii",
"iiii@@>>>>@@>>>>@@88......::..@@..@@@@::......::@@@@..@@@@..@@....@@@@>>@@@@..@@@@..@@..>>>>@@88......::..@@..@@@@::......::@@ii",
"iiii..>>11**>>11@@::::..::::@@88::::@@::::..::::..@@@@..@@..@@..$$$$@@>>@@..@@..@@@@..@@>>>>**::::..::::@@88::::@@::::..::::..ii",
"iiii..>>11**>>11@@::::..::::@@88::::@@::::..::::..@@@@..@@..@@..$$$$@@>>@@..@@..@@@@..@@>>>>**::::..::::@@88::::@@::::..::::..ii",
"iiii@@>>>>@@>>>>..@@::::::..88::..::::@@::::@@@@@@..............$$$$@@@@................>>>>@@@@::::::..88::..::::@@::::@@@@@@ii",
"iiii@@>>>>@@>>>>..@@::::::..88::..::::@@::::@@@@@@..............$$$$@@@@................>>>>@@@@::::::..88::..::::@@::::@@@@@@ii",
"ii....>>>>@@>>>>@@@@..@@@@..::......::@@@@@@..@@................$$$$$$..................>>>>>>@@..@@@@@@::......::@@@@@@..@@..ii",
"ii....>>>>@@>>>>@@@@..@@@@..::......::@@@@@@..@@................$$$$$$..................>>>>>>@@..@@@@@@::......::@@@@@@..@@..ii",
"ii..@@>>>>@@>>>>@@..qq::::@@::::..::::..88::::@@@@$$$$$$$$$$$$$$33333333$$$$$$$$$$$$..$$>>>>..@@0088::..::::..::::..88::::@@@@ii",
"ii..@@>>>>@@>>>>@@..qq::::@@::::..::::..88::::@@@@$$$$$$$$$$$$$$33333333$$$$$$$$$$$$..$$>>>>..@@0088::..::::..::::..88::::@@@@ii",
"ii@@@@>>>>..>>>>@@99::..::::@@::::::..88@@..::::..33333344333333$$33$$$$33$$$$$$..$$$$$$>>>>@@99::..::::@@::::::..88@@..::::@@ii",
"ii@@@@>>>>..>>>>@@99::..::::@@::::::..88@@..::::..33333344333333$$33$$$$33$$$$$$..$$$$$$>>>>@@99::..::::@@::::::..88@@..::::@@ii",
"ii@@@@**>>@@>>>>@@::......::@@@@..@@@@::......::@@3333444433443333333333$$3333$$$$$$$$$$>>>>@@::......::..@@@@..@@::......::@@ii",
"ii@@@@**>>@@>>>>@@::......::@@@@..@@@@::......::@@3333444433443333333333$$3333$$$$$$$$$$>>>>@@::......::..@@@@..@@::......::@@ii",
"ii..@@..@@@@@@@@@@::::..::::..88::::@@::::..::::@@@@11>>**@@@@@@..@@@@..@@@@..@@..>>rrrr>>@@@@::::..::::@@::::::@@::::..::@@iiii",
"ii..@@..@@@@@@@@@@::::..::::..88::::@@::::..::::@@@@11>>**@@@@@@..@@@@..@@@@..@@..>>rrrr>>@@@@::::..::::@@::::::@@::::..::@@iiii",
"iiii........@@@@@@@@::::@@@@::::..::::@@::::::..>>>>>>@@@@@@..@@@@..@@@@@@..@@**1111rr11>>@@..@@::::::..88::..::::@@::::::@@iiii",
"iiii........@@@@@@@@::::@@@@::::..::::@@::::::..>>>>>>@@@@@@..@@@@..@@@@@@..@@**1111rr11>>@@..@@::::::..88::..::::@@::::::@@iiii",
"iiii..........@@@@@@@@@@@@..::......::@@..@@@@@@**@@@@>>....................@@>>>>@@>>11@@@@@@@@..@@@@@@::......::@@@@..@@iiiiii",
"iiii..........@@@@@@@@@@@@..::......::@@..@@@@@@**@@@@>>....................@@>>>>@@>>11@@@@@@@@..@@@@@@::......::@@@@..@@iiiiii",
"iiiiii..............@@..@@@@::::..::::..@@@@@@..@@......@@..@@@@..@@@@..@@@@>>>>@@@@@@11@@....@@@@..@@..::::..::::@@..@@iiiiiiii",
"iiiiii..............@@..@@@@::::..::::..@@@@@@..@@......@@..@@@@..@@@@..@@@@>>>>@@@@@@11@@....@@@@..@@..::::..::::@@..@@iiiiiiii",
"iiiiiiii........@@>>@@@@@@..@@::::::..@@....................@@..@@@@..@@@@>>@@@@@@@@>>....@@@@@@..@@@@@@@@::::::..@@..iiiiiiiiii",
"iiiiiiii........@@>>@@@@@@..@@::::::..@@....................@@..@@@@..@@@@>>@@@@@@@@>>....@@@@@@..@@@@@@@@::::::..@@..iiiiiiiiii",
"iiiiiiiiiiii....@@>>>>>>@@............**@@@@..@@..............@@@@..@@@@..@@@@@@@@....@@..@@@@@@@@@@................iiiiiiiiiiii",
"iiiiiiiiiiii....@@>>>>>>@@............**@@@@..@@..............@@@@..@@@@..@@@@@@@@....@@..@@@@@@@@@@................iiiiiiiiiiii",
"iiiiiiiiiiiiiiii@@@@>>>>22@@@@@@@@..@@@@@@>>@@@@........................@@@@..@@..@@@@>>@@**@@..@@..@@>>>>**>>@@@@@@iiiiiiiiiiii",
"iiiiiiiiiiiiiiii@@@@>>>>22@@@@@@@@..@@@@@@>>@@@@........................@@@@..@@..@@@@>>@@**@@..@@..@@>>>>**>>@@@@@@iiiiiiiiiiii",
"iiiiiiiiiiiiiiiiii88888888::::::@@@@@@@@@@>>@@..........................@@@@@@....@@@@11@@>>@@@@@@@@..8888@@::@@::iiiiiiiiiiiiii",
"iiiiiiiiiiiiiiiiii88888888::::::@@@@@@@@@@>>@@..........................@@@@@@....@@@@11@@>>@@@@@@@@..8888@@::@@::iiiiiiiiiiiiii",
"iiiiiiiiiiiiiiiiiiii..@@....@@..@@@@..@@**@@@@................................@@@@@@@@11>>>>@@@@@@@@@@@@@@......iiiiiiiiiiiiiiii",
"iiiiiiiiiiiiiiiiiiii..@@....@@..@@@@..@@**@@@@................................@@@@@@@@11>>>>@@@@@@@@@@@@@@......iiiiiiiiiiiiiiii",
"iiiiiiiiiiiiiiiiii@@@@@@..@@@@@@..@@@@@@@@@@@@............................@@....@@..@@>>@@11>>@@@@@@..@@....@@..iiiiiiiiiiiiiiii",
"iiiiiiiiiiiiiiiiii@@@@@@..@@@@@@..@@@@@@@@@@@@............................@@....@@..@@>>@@11>>@@@@@@..@@....@@..iiiiiiiiiiiiiiii",
"iiiiiiiiiiiiiiiiii..@@****@@@@@@@@@@..@@@@**@@................iiiiiiii........@@@@@@@@@@@@11**>>@@@@@@@@@@@@....iiiiiiiiiiiiiiii",
"iiiiiiiiiiiiiiiiii..@@****@@@@@@@@@@..@@@@**@@................iiiiiiii........@@@@@@@@@@@@11**>>@@@@@@@@@@@@....iiiiiiiiiiiiiiii",
"iiiiiiiiiiiiiiiiiiii@@@@@@**..@@..@@@@@@@@@@................iiiiiiiiiiiiii@@@@@@..@@@@1111>>@@@@>>>>11>>>>@@**@@@@iiiiiiiiiiiiii",
"iiiiiiiiiiiiiiiiiiii@@@@@@**..@@..@@@@@@@@@@................iiiiiiiiiiiiii@@@@@@..@@@@1111>>@@@@>>>>11>>>>@@**@@@@iiiiiiiiiiiiii",
"iiiiiiiiiiiiiiiiiiii....@@@@>>>>@@**@@@@@@@@@@@@@@@@@@@@....iiiiiiiiiiiiii..@@@@@@@@@@yyyy111111>>>>>>@@**@@@@....iiiiiiiiiiiiii",
"iiiiiiiiiiiiiiiiiiii....@@@@>>>>@@**@@@@@@@@@@@@@@@@@@@@....iiiiiiiiiiiiii..@@@@@@@@@@yyyy111111>>>>>>@@**@@@@....iiiiiiiiiiiiii",
"iiiiiiiiiiiiiiiiii..........@@>>>>>>1111111111>>@@@@@@@@..iiiiiiiiiiiiiiii@@..@@@@111111@@@@@@@@..@@..@@@@..@@....iiiiiiiiiiiiii",
"iiiiiiiiiiiiiiiiii..........@@>>>>>>1111111111>>@@@@@@@@..iiiiiiiiiiiiiiii@@..@@@@111111@@@@@@@@..@@..@@@@..@@....iiiiiiiiiiiiii",
"iiiiiiiiiiiiiiiiii@@@@@@....@@@@@@@@..@@..**>>@@........@@iiiiiiiiiiiiiiiiii@@>>11@@............................iiiiiiiiiiiiiiii",
"iiiiiiiiiiiiiiiiii@@@@@@....@@@@@@@@..@@..**>>@@........@@iiiiiiiiiiiiiiiiii@@>>11@@............................iiiiiiiiiiiiiiii",
"iiiiiiiiiiiiiiiiii..@@@@@@@@............................iiiiiiiiiiiiiiiiiiii11**................................iiiiiiiiiiiiiiii",
"iiiiiiiiiiiiiiiiii..@@@@@@@@............................iiiiiiiiiiiiiiiiiiii11**................................iiiiiiiiiiiiiiii",
"iiiiiiiiiiiiiiiiiiii....@@@@**@@@@............@@@@@@@@..iiiiiiiiiiiiiiiiiiii......@@1111yy1111>>>>>>>>>>**@@**@@..iiiiiiiiiiiiii",
"iiiiiiiiiiiiiiiiiiii....@@@@**@@@@............@@@@@@@@..iiiiiiiiiiiiiiiiiiii......@@1111yy1111>>>>>>>>>>**@@**@@..iiiiiiiiiiiiii",
"iiiiiiiiiiiiiiiiiiiiii......@@>>>>>>>>>>11>>@@@@@@..@@iiiiiiiiiiiiiiiiiiiiiiii..  11>>>>******@@****..@@@@@@@@..@@iiiiiiiiiiiiii",
"iiiiiiiiiiiiiiiiiiiiii......@@>>>>>>>>>>11>>@@@@@@..@@iiiiiiiiiiiiiiiiiiiiiiii..  11>>>>******@@****..@@@@@@@@..@@iiiiiiiiiiiiii",
"iiiiiiiiiiiiiiiiiiiiii..............................iiiiiiiiiiiiiiiiiiiiiiiiii..  ..............................iiiiiiiiiiiiiiii",
"iiiiiiiiiiiiiiiiiiiiii..............................iiiiiiiiiiiiiiiiiiiiiiiiii..  ..............................iiiiiiiiiiiiiiii",
"iiiiiiiiiiiiiiiiiiiiii@@@@..@@@@..@@@@@@@@..........iiiiiiiiiiiiiiiiiiiiiiiiiiii  ....@@>>@@@@@@@@@@............iiiiiiiiiiiiiiii",
"iiiiiiiiiiiiiiiiiiiiii@@@@..@@@@..@@@@@@@@..........iiiiiiiiiiiiiiiiiiiiiiiiiiii  ....@@>>@@@@@@@@@@............iiiiiiiiiiiiiiii",
"iiiiiiiiiiiiiiiiiiiiiiii..@@..@@@@..@@@@..........iiiiiiiiiiiiiiiiiiiiiiiiiiiiiiii..@@@@**@@@@@@@@>>............iiiiiiiiiiiiiiii",
"iiiiiiiiiiiiiiiiiiiiiiii..@@..@@@@..@@@@..........iiiiiiiiiiiiiiiiiiiiiiiiiiiiiiii..@@@@**@@@@@@@@>>............iiiiiiiiiiiiiiii",
"iiiiiiiiiiiiiiiiiiiiiiii............................iiiiiiiiiiiiiiiiiiiiiiiiiiiiiiii..@@@@>>@@@@@@>>..........iiiiiiiiiiiiiiiiii",
"iiiiiiiiiiiiiiiiiiiiiiii............................iiiiiiiiiiiiiiiiiiiiiiiiiiiiiiii..@@@@>>@@@@@@>>..........iiiiiiiiiiiiiiiiii",
"iiiiiiiiiiiiiiiiiiiiiiii..@@@@@@@@@@@@@@..@@@@......iiiiiiiiiiiiiiiiiiiiiiiiiiiiiiii..@@@@@@@@@@**>>..........iiiiiiiiiiiiiiiiii",
"iiiiiiiiiiiiiiiiiiiiiiii..@@@@@@@@@@@@@@..@@@@......iiiiiiiiiiiiiiiiiiiiiiiiiiiiiiii..@@@@@@@@@@**>>..........iiiiiiiiiiiiiiiiii",
"iiiiiiiiiiiiiiiiiiiiii..............................iiiiiiiiiiiiiiiiiiiiiiiiiiiiiiiiii..@@@@@@@@>>11..........iiiiiiiiiiiiiiiiii",
"iiiiiiiiiiiiiiiiiiiiii..............................iiiiiiiiiiiiiiiiiiiiiiiiiiiiiiiiii..@@@@@@@@>>11..........iiiiiiiiiiiiiiiiii",
"iiiiiiiiiiiiiiiiiiiiii  @@@@@@@@@@@@@@..@@@@@@@@....iiiiiiiiiiiiiiiiiiiiiiiiiiiiiiiiii....@@@@@@>>1111@@**@@..iiiiiiiiiiiiiiiiii",
"iiiiiiiiiiiiiiiiiiiiii  @@@@@@@@@@@@@@..@@@@@@@@....iiiiiiiiiiiiiiiiiiiiiiiiiiiiiiiiii....@@@@@@>>1111@@**@@..iiiiiiiiiiiiiiiiii",
"iiiiiiiiiiiiiiiiiiii@@@@@@@@..@@@@..@@@@@@..@@@@..@@@@@@@@**@@****iiiiiiiiiiiiiiiiii....@@@@**>>>>>>@@**@@@@@@@@iiiiiiiiiiiiiiii",
"iiiiiiiiiiiiiiiiiiii@@@@@@@@..@@@@..@@@@@@..@@@@..@@@@@@@@**@@****iiiiiiiiiiiiiiiiii....@@@@**>>>>>>@@**@@@@@@@@iiiiiiiiiiiiiiii",
"iiiiiiiiiiiiiiiiiiii..@@................@@........@@@@@@@@@@@@@@@@@@****>>@@**@@@@....@@@@**@@@@@@@@@@@@@@@@@@@@@@iiiiiiiiiiiiii",
"iiiiiiiiiiiiiiiiiiii..@@................@@........@@@@@@@@@@@@@@@@@@****>>@@**@@@@....@@@@**@@@@@@@@@@@@@@@@@@@@@@iiiiiiiiiiiiii",
"iiiiiiiiiiiiiiiiiiii............................@@@@@@@@@@@@@@@@@@@@@@@@@@@@@@@@@@....**@@@@@@@@..@@@@@@@@@@@@@@..@@**>>>>iiiiii",
"iiiiiiiiiiiiiiiiiiii............................@@@@@@@@@@@@@@@@@@@@@@@@@@@@@@@@@@....**@@@@@@@@..@@@@@@@@@@@@@@..@@**>>>>iiiiii",
"iiiiiiiiiiiiiiiiiiiiiiiiiiiiiiii>>1111>>>>>>>>@@>>@@****@@**@@>>@@@@@@@@@@@@@@@@@@@@..@@@@@@@@@@................@@@@@@>>>>11>>ii",
"iiiiiiiiiiiiiiiiiiiiiiiiiiiiiiii>>1111>>>>>>>>@@>>@@****@@**@@>>@@@@@@@@@@@@@@@@@@@@..@@@@@@@@@@................@@@@@@>>>>11>>ii",
"iiiiiiiiiiiiiiiiiiiiiiiiiiiiiiiiiiiiiiiiiiiiiiiiiiiiiiii1111>>>>>>>>>>>>>>**>>@@>>@@@@..............................@@>>>>1111ii",
"iiiiiiiiiiiiiiiiiiiiiiiiiiiiiiiiiiiiiiiiiiiiiiiiiiiiiiii1111>>>>>>>>>>>>>>**>>@@>>@@@@..............................@@>>>>1111ii"
};
