/* XPM */
static char *_c24a5713911497ac4ed2e788c8787fb05UPYUpg7vHDqxAN[] = {
/* columns rows colors chars-per-pixel */
"128 128 72 1 ",
"  c black",
". c #020202",
"X c #070707",
"o c #131713",
"O c #272727",
"+ c #282828",
"@ c gray19",
"# c gray22",
"$ c #4F3B1C",
"% c #6D4926",
"& c #744C28",
"* c #024242",
"= c #025A5A",
"- c #026C6C",
"; c #027474",
": c gray25",
"> c gray28",
", c #484848",
"< c #504E4C",
"1 c gray33",
"2 c gray37",
"3 c #646464",
"4 c gray40",
"5 c #6C6C6C",
"6 c gray44",
"7 c #7C7C7C",
"8 c #7E7E7E",
"9 c #80502C",
"0 c #885830",
"q c #895831",
"w c #9C6038",
"e c #9F633B",
"r c #A86840",
"t c #B06E44",
"y c #B47044",
"u c #BC7848",
"i c #BE7A4A",
"p c #C87C4C",
"a c #CA7E4E",
"s c #D88654",
"d c #DC8854",
"f c #E88C58",
"g c #F0945C",
"h c #F0945D",
"j c #FCA470",
"k c #FEAA77",
"l c #028888",
"z c #029A9A",
"x c #02A1A1",
"c c #02CECE",
"v c #808080",
"b c gray55",
"n c #959595",
"m c #989898",
"M c gray66",
"N c #B4B4B4",
"B c #B6B6B6",
"V c #FCB080",
"C c #FCB890",
"Z c #FEBB97",
"A c #FCBC9C",
"S c #FCC4A4",
"D c #FCCCB0",
"F c #FCD4BC",
"G c gray76",
"H c #D0D0D0",
"J c #D7D7D7",
"K c #FCD8C4",
"L c #FCE0D0",
"P c #ECECEC",
"I c #F3F3E8",
"U c white",
/* pixels */
"UUUUUUUUUUUUUUUUUUUUUUUUUUUUUUUUUUUUUUUUUUUUUUUUUUUUUUUUUUUUUUUUUUUUUUUUUUUUUUUUUUUUUUUUUUUUUUUUUUUUUUUUUUUUUUUUUUUUUUUUUUUUUUUU",
"UUUUUUUUUUUUUUUUUUUUUUUUUUUUUUUUUUUUUUUUUUUUUUUUUUUUUUUUUUUUUUUUUUUUUUUUUUUUUUUUUUUUUUUUUUUUUUUUUUUUUUUUUUUUUUUUUUUUUUUUUUUUUUUU",
"UUUUUUUUUUUUUUUUUUUUUUUUUUUUUUUUUUUUUUUUUUUUUUUUUUUUUUUUUUUUUUUUUUUUUUUUUUUUUUUUUUUUUUUUUUUUUUUUUUUUUUUUUUUUUUUUUUUUUUUUUUUUUUUU",
"UUUUUUUUUUUUUUUUUUUUUUUUUUUUUUUUUUUUUUUUUUUUUUUUUUUUUUUUUUUUUUUUUUUUUUUUUUUUUUUUUUUUUUUUUUUUUUUUUUUUUUUUUUUUUUUUUUUUUUUUUUUUUUUU",
"UUUUUUUUUUUUUUUUUUUUUUUUUUUUUUUUUUUUUUUUUUUUUUUUUUUUUUUUUUUUSSDDFFFFFFDDSSUUUUUUUUUUUUUUUUUUUUUUUUUUUUUUUUUUUUUUUUUUUUUUUUUUUUUU",
"UUUUUUUUUUUUUUUUUUUUUUUUUUUUUUUUUUUUUUUUUUUUUUUUUUUUUUUUUUUUSSDDFFFFFFDDSSUUUUUUUUUUUUUUUUUUUUUUUUUUUUUUUUUUUUUUUUUUUUUUUUUUUUUU",
"UUUUUUUUUUUUUUUUUUUUUUUUUUUUUUUUUUUUUUUUUUUUUUUUUUUUUUUUjjAADDKKLLLLLLKKDDAAVVUUUUUUUUUUUUUUUUUUUUUUUUUUUUUUUUUUUUUUUUUUUUUUUUUU",
"UUUUUUUUUUUUUUUUUUUUUUUUUUUUUUUUUUUUUUUUUUUUUUUUUUUUUUUUjjAADDKKLLLLLLKKDDAAVVUUUUUUUUUUUUUUUUUUUUUUUUUUUUUUUUUUUUUUUUUUUUUUUUUU",
"UUUUUUUUUUUUUUUUUUUUUUUUUUUUUUUUUUUUUUUUUUUUUUUUUUUUUUjjjjSSDDKKLLLLLLKKDDVVVVggUUUUUUUUUUUUUUUUUUUUUUUUUUUUUUUUUUUUUUUUUUUUUUUU",
"UUUUUUUUUUUUUUUUUUUUUUUUUUUUUUUUUUUUUUUUUUUUUUUUUUUUUUjjjjSSDDKKLLLLLLKKDDVVVVggUUUUUUUUUUUUUUUUUUUUUUUUUUUUUUUUUUUUUUUUUUUUUUUU",
"UUUUUUUUUUUUUUUUUUUUUUUUUUUUUUUUUUUUUUUUUUUUUUUUUUUUUUjjjjVVCCDDFFFFFFDDCCVVjjggUUUUUUUUUUUUUUUUUUUUUUUUUUUUUUUUUUUUUUUUUUUUUUUU",
"UUUUUUUUUUUUUUUUUUUUUUUUUUUUUUUUUUUUUUUUUUUUUUUUUUUUUUjjjjVVCCDDFFFFFFDDCCVVjjggUUUUUUUUUUUUUUUUUUUUUUUUUUUUUUUUUUUUUUUUUUUUUUUU",
"UUUUUUUUUUUUUUUUUUUUUUUUUUUUUUUUUUUUUUUUUUUUUUUUUUUUjjjjjjVVCCDDFFFFFFDDCCVVjjggggUUUUUUUUUUUUUUUUUUUUUUUUUUUUUUUUUUUUUUUUUUUUUU",
"UUUUUUUUUUUUUUUUUUUUUUUUUUUUUUUUUUUUUUUUUUUUUUUUUUUUjjjjjjVVCCDDFFFFFFDDCCVVjjggggUUUUUUUUUUUUUUUUUUUUUUUUUUUUUUUUUUUUUUUUUUUUUU",
"UUUUUUUUUUUUUUUUUUUUUUUUUUUUUUUUUUUUUUUUUUIIUUUUUUUUggZZggghhhhhkkkkkkhhhhhhggssggUUUUUUUUnnUUUUUUUUUUUUUUUUUUUUUUUUUUUUUUUUUUUU",
"UUUUUUUUUUUUUUUUUUUUUUUUUUUUUUUUUUUUUUUUUUIIUUUUUUUUggZZgghhhhhhkkkkkkhhhhhgggssggUUUUUUUUnnUUUUUUUUUUUUUUUUUUUUUUUUUUUUUUUUUUUU",
"UUUUUUUUUUUUUUUUUUUUUUUUUUUUUUUUUUUUUUUUUUJJUUUUUUUUddZZkkkkkkgghhhhhhkkkkkkkkssggUUUUUUUUnnUUUUUUUUUUUUUUUUUUUUUUUUUUUUUUUUUUUU",
"UUUUUUUUUUUUUUUUUUUUUUUUUUUUUUUUUUUUUUUUUUJJUUUUUUUUddZZkkkkkkgghhhhhhkkkkkkkkssggUUUUUUUUnnUUUUUUUUUUUUUUUUUUUUUUUUUUUUUUUUUUUU",
"UUUUUUUUUUUUUUUUUUUUUUUUUUUUUUUUUUUUUUUUUUJJUUUUUUddddggrt%%%%ZZkkaakkkk%%%%ttssdduuUUUUUUnnUUUUUUUUUUUUUUUUUUUUUUUUUUUUUUUUUUUU",
"UUUUUUUUUUUUUUUUUUUUUUUUUUUUUUUUUUUUUUUUUUJJUUUUUUddddggtt%%%%ZZkkaakkkk%%%%ttssdduuUUUUUUnnUUUUUUUUUUUUUUUUUUUUUUUUUUUUUUUUUUUU",
"UUUUUUUUUUUUUUUUUUUUUUUUUUUUUUUUUUUUUUUU44JJ11UUUUuuss99ewNN77..99we&&..77NN0000ssrrUUUU448811UUUUUUUUUUUUUUUUUUUUUUUUUUUUUUUUUU",
"UUUUUUUUUUUUUUUUUUUUUUUUUUUUUUUUUUUUUUUU44JJ11UUUUuuss99ewNN77..9&we&&..78NN0000ssrrUUUU448811UUUUUUUUUUUUUUUUUUUUUUUUUUUUUUUUUU",
"UUUUUUUUUUUUUUUUUUUUUUUUBBUUUUUUUUUUUUUU88GG11UUUUddssZZppttyyyyrrVVytrryyyyuuppssuuUUUU448811UUUUUUUUBBUUUUUUUUUUUUUUUUUUUUUUUU",
"UUUUUUUUUUUUUUUUUUUUUUUUBBUUUUUUUUUUUUUU88GG11UUUUddssZZpayyyyyyrrVkytrryyytuupassuuUUUU448811UUUUUUUUBBUUUUUUUUUUUUUUUUUUUUUUUU",
"UUUUUUUUUUUUUUUUUUUUUUUUnnnnUUUUUUUUUUUUnnBB11UUUUddjjggSSFFDDCCapkVwwjjSSSSjjggjjuuUUUU448811UUUUUUUUBBUUUUUUUUUUUUUUUUUUUUUUUU",
"UUUUUUUUUUUUUUUUUUUUUUUUnnnnUUUUUUUUUUUUnnBB11UUUUddjjggSSFFDDCCaaVVwwjjSSSSjjggjjuuUUUU448811UUUUUUUUBBUUUUUUUUUUUUUUUUUUUUUUUU",
"UUUUUUUUUUUUUUUUUUUUUUUU22BB44UUUUUUUUUUnnBB44UUUUUUssuuCCSSCCffCCKFffrrddjjddrrssUUUUUU448844UUUUUU44BBUUUUUUUUUUUUUUUUUUUUUUUU",
"UUUUUUUUUUUUUUUUUUUUUUUU22BB44UUUUUUUUUUnnBB44UUUUUUssuuCCSSCCffCCFFffrrdsjjddrrssUUUUUU448844UUUUUU44BBUUUUUUUUUUUUUUUUUUUUUUUU",
"UUUUUUUUUUUUUUUUUUUUUUUU44BBBBUUUUUUUU44nnBB44##UUOOssMMuujjMMMMbb33333377uurr66ssOOUU>>448844##UUUUBBBBUUUUUUUUUUUUUUUUUUUUUUUU",
"UUUUUUUUUUUUUUUUUUUUUUUU44BBBBUUUUUUUU44nnBB44##UUOOssMMuijjMMMMbb33333377uurr66ssOOUU>>448844##UUUUBBBBUUUUUUUUUUUUUUUUUUUUUUUU",
"UUUUUUUUUUUUUUUUUUUUUUUU22nnBBnnUUUUUU44nnBB44##ooOObbbbMMbb11mm43HHMM77@@33663311OOoo>>448844##UU44BBnnUUnnUUUUUUUUUUUUUUUUUUUU",
"UUUUUUUUUUUUUUUUUUUUUUUU22nnBBnnUUUUUU44nnBB44##ooOObbbbMMbb11mm33HHMM77@@33663311OOoo>>448844##UU44BBnnUUnnUUUUUUUUUUUUUUUUUUUU",
"UUUUUUUUUUUUUUUUnnUUUUUU44<<<<55<<55<<44nnBB44>>OOooOO66bb87##mmPPHHMM77++113311OOOOOO>>448844>>OOOOXXXXXXXXUUUUUUUUUUUUUUUUUUUU",
"UUUUUUUUUUUUUUUUnnUUUUUU44<<<<55<<55<<44nnBB44>>OOooOO66bb77##mmPPHHMM77++113311OOOOOO>>448844>>OOOOXXXXXXXXUUUUUUUUUUUUUUUUUUUU",
"UUUUUUUUUUUUUUUU44nnUU<<55<<vv555555vv5588nn44OOOOOOoo11bbMMVVSSDDVVdduurr3311##ooOOooXX>>8844XXXXXXXXXXOOOOXXXXUUUUUUUUUUUUUUUU",
"UUUUUUUUUUUUUUUU44nnUU<<55<<vv555555vv5588nn44OOOOOOoo11bbMMVkSSDDVkdduurr3311##ooOOooXX>>8844XXXXXXXXXXOOOOXXXXUUUUUUUUUUUUUUUU",
"UUUUUUUUUUUUUUUU4455<<5555vvvvvvvvvvvv55vv555555##ooOOOO77MMMMMMbb8733773333,,OOOOooXXOOOOOOOOOOOOOOOO##OO##OOOOXXUUUUUUUUUUUUUU",
"UUUUUUUUUUUUUUUU4455<<5555vvvvvvvvvvvv55vv555555##ooOOOO77MMMMMMbb7733773333,>OOOOooXXOOOOOOOOOOOOOOOO##OO##OOOOXXUUUUUUUUUUUUUU",
"UUUUUUUUUUUUUUUU55<<vvvvvvvv5555vv555555<<555555<<OOOOooOObbbb777744333311,,OOooOOXXOOOOOO########<<############OOXXUUUUUUUUUUUU",
"UUUUUUUUUUUUUUUU55<<vvvvvvvv5555vv555555<<555555<<OOOOooOObbbb777734333311,,OOooOOXXOOOOOO########<<############OOXXUUUUUUUUUUUU",
"UUUUUUUUUUUUUU5555vv55vvvv55vvvv55<<<<<<<<######<<####BBOOoo663311111111::OOooXXOO########nn<<##<<####<<########OOOOXXUUUUUUUUUU",
"UUUUUUUUUUUUUU5555vv55vvvv55vvvv55<<<<<<<<######<<####BBOOoo653411111111::OOooXXOO########nn<<##<<####<<########OOOOXXUUUUUUUUUU",
"UUUUUUUUUUvvvvvvvvvvvvvv5555555555<<######<<##<<##88BB##OOOO++OOXXXXXXXX##<<<<##<<######8888########<<######55<<5555<<##UUUUUUUU",
"UUUUUUUUUUvvvvvvvvvvvvvv5555555555<<######<<##<<##88BB##OOOOOOOOXXXXXXXX##<<<<##<<######8888########<<######55<<5555<<##UUUUUUUU",
"UUUUUUUUvv<<####OO##OO##<<55<<##<<##<<##<<######448888##<<######OOXXXXXX<<<<<<####<<##118844##########<<##XXXXXXOOOOOOXX##OOUUUU",
"UUUUUUUUvv<<####OO##OO##<<55<<##<<##<<##<<######448888##<<######OOXXXXXX<<<<<<####<<##118844##########<<##XXXXXXOOOOOOXX##OOUUUU",
"UUUUUUUU##vvvvvv555555<<OOXXXX##OO<<######<<##<<##4411XXXXOO######XXXXXX##55<<##<<####<<1111XXXXOO##<<OOXXXXoo..oooooo..XXXXUUUU",
"UUUUUUUU##vvvvvv555555<<OOXXXX##OO<<######<<##<<##4411XXXXOO######XXXXXX##55<<##<<####<<1111XXXXOO##<<OOXXXXoo..oooooo..XXXXUUUU",
"UUUUUU<<55##XXXXOOXXOOXX##OOooooXXXX######OO##OO####OOXXOO##OO##OOOOXXXXXX<<55####OO####OOOOOOOOOO##OOXXXX..ooooooooooooooXXUUUU",
"UUUUUU<<55##XXXXOOXXOOXX##OOooooXXXX######OO##OO####OOXXOO##OO##OOOOXXXXXX<,55####OO####OOOOOOOOOO##OOXXXX..ooooooooooooooXXUUUU",
"UUUU<<##OO5555<<<<<<####XXXXOOooXXXXXXOOOO########OO####OO####OO##OOXXXXOO##<<<<OO####OO######OO##OOXXXXoooo............XXXXOOUU",
"UUUU<<##OO5555<<<<<<####XXXXOOooXXXXXXOOOO########OO####OO####OO##OOXXXXOO##<<<<OO####OO######OO##OOXXXXoooo............XXXXOOUU",
"UUUUOO##<<55555555<<<<####XXXXXX..ooXXXXXXOOOO##OO####OO####OO####OOXXXXXX##55######OO####OO####OOXXooXXXX##XXooooooooXXXX##OOUU",
"UUUUOO##<<55555555<<<<####XXXXXX..ooXXXXXXOOOO##OO####OO####OO####OOXXXXXX##55######OO####OO####OOXXooXXXX##XXooooooooXXXX##OOUU",
"UUUU####<<vv5555<<55<<##OOXXooXX......XXOOXXOOOO####OO####OO####OOXXXXXX++##55####OO####OO##OOOOXX..ooXXXXOO##<<<<<<<<####OOXXUU",
"UUUU####<<vv5555<<55<<##OOXXooXX......XXOOXXOOOO####OO####OO####OOXXXXXXO+##55####OO####OO##OOOOXX..ooXXXXOO##<<<<<<<<####OOXXUU",
"UUUUOO##<<vvvv55vv<<<<####XXXXoo......ooXXXXXXXXXXXXXXXXXXXXXXXXXXXX..ooooooXXXXXXXXXXXXXXXXXXXX..ooXXOOOOOOOOXXXXXXXXXXXXOOXXUU",
"UUUUOO##<<vvvv55vv<<<<####XXXXoo......ooXXXXXXXXXXXXXXXXXXXXXXXXXXXX..ooooooXXXXXXXXXXXXXXXXXXXX..ooXXOOOOOOOOXXXXXXXXXXXXOOXXUU",
"UUUU##OO5555vv<<vv55<<OO##XXXXXX..........oo..oo..oo..oo..oo..oo..oooo....oo..oo..oo..oo..oo..oo..ooXXOO######<<OO<<##XXOOXXUUUU",
"UUUU##OO5555vv<<vv55<<OO##XXXXXX..........oo..oo..oo..oo..oo..oo..oooo....oo..oo..oo..oo..oo..oo..ooXXOO######<<OO<<##XXOOXXUUUU",
"UUUUUU##<<vvvv<<vv<<<<####XXXXXX........OOOOOOOOooOOOOooOOOOooOOOOooOOooOOOOOOOOOOooOO............ooXXXX####<<OO####XX##XXXXUUUU",
"UUUUUU##<<vvvv<<vv<<<<####XXXXXX........OOOOOOOOooOOOOooOOOOooOOOOooOOooOOOOOOOOOOooOO............ooXXXX####<<OO####XX##XXXXUUUU",
"UUUUUUOOvv55vv55vv5555####XXXXXX........OOooOOOO####################ooOOOOOO########OOOOOOOO........XXOO############XXOOXXXXUUUU",
"UUUUUUOOvv55vv55vv5555####XXXXXX........OOooOOOO####################ooOOOOOO########OOOOOOOO........XXOO############XXOOXXXXUUUU",
"UUUUUU##55OOOOOOO+++<<####XXXXXX........ooOOOO####OOOOOOOOOOOOOOOOooOOooOO##OOOOOOOOOOOOOOOO........ooOO##OO##OOOOXXOOXXXXUUUUUU",
"UUUUUU##55OOOOOOO+++<,####XXXXXX........ooOOOO####OOOOOOOOOOOOOOOOooOOooOO##OOOOOOOOOOOOOOOO........ooOO##OO##OOOOXXOOXXXXUUUUUU",
"UUUUUUXXXXOO<<<<####==--zzllll--==........OOOOooooOOooOO............OOOOooOO......................ooXXooXXOOOOOOXXXXXXXXooUUUUUU",
"UUUUUUXXXXOO<<<<####==--zzllll--==........OOOOooooOOooOO............OOOOooOO......................ooXXooXXOOOOOOXXXXXXXXooUUUUUU",
"UUUUOO<<XXOO<<<<##==;;llxxxx====--==ooOOOOooOOOOOOooOOOOooOOOOooOOOOooOOooOOooOOOOooOOOOooOO......ooXXXX..oooooo..oo..ooXXUUUUUU",
"UUUUOO<<XXOO<<<<##==;;llxxxx====--==ooOOOOooOOOOOOooOOOOooOOOOooOOOOooOOooOOooOOOOooOOOOooOO......ooXXXX..oooooo..oo..ooXXUUUUUU",
"UUUUXXXXOO<<55##====;;;;ccxx;;ll==;;**OOooOOOOOO######>>>>##>>########OO##OOOOOOOO##OOOOOOooOOoo....XXXXXXXXXX==----------UUUUUU",
"UUUUXXXXOO<<55##====;;;;ccxx;;ll==;;**OOooOOOOOO######>>>>##>>########OO##OOOOOOOO##OOOOOOooOOoo....XXXXXXXXXX==----------UUUUUU",
"UUUUXXXX##55<<##====;;llccxxll;;**;;==ooOOooOOOOooOOOOOOOO##OOOOOOOOOOOOOO##OOOO..................ooXXXXOOXX====--ll;;;;--==UUUU",
"UUUUXXXX##55<<##====;;llccxxll;;**;;==ooOOooOOOOooOOOOOOOO##OOOOOOOOOOOOOO##OOOO..................ooXXXXOOXX====--ll;;;;--==UUUU",
"UUUUXXOO####55##====;;;;zzcc;;ll==--==**..........ooOO....OOOO##OO##OOOOOO..XXOO<<55<<55####OO##XXoo..XXXX**====------========UU",
"UUUUXXOO####55##====;;;;zzcc;;ll==--==**..........ooOO....OOOO##OO##OOOOOO..XXOO<<55<<55####OO##XXoo..XXXX**====------========UU",
"UUUUXXXXOO##++<<==;;==;;llccxx;;==**--**OOOOXXXXXXXXXXXXoo..............XXOO####OOOOXXXXOOXXXXXXOOXXooXXXX**================**UU",
"UUUUXXXXOO##++<,==;;==;;llccxx;;==**--**OOOOXXXXXXXXXXXXoo..............XXOO####OOOOXXXXOOXXXXXXOOXXooXXXX**================**UU",
"UUUUUUXXOOO+##OO==;;==--llxxcc;;ll**--==XXXXXXXXXXooXXXXXXXXooOO....XXOO##XXXXOO##55<<<<OOOOOOXXXXXXXXooXX**============**==OOUU",
"UUUUUUXXOOO+##OO==;;==--llxxcc;;ll**--==XXXXXXXXXXooXXXXXXXXooOO....XXOO##XXXXOO##55<<<<OOOOOOXXXXXXXXooXX**============**==OOUU",
"UUUUUUXXXXXXOO##XX====;;;;llccll;;==**==**OOOOOOXXOOXXooooXXooXX..XXOOXXXXOO##55<<<<5555<<##OOOOXXooooXXOOOO**========**==**OOUU",
"UUUUUUXXXXXXOO##XX====;;;;llccll;;==**==**OOOOOOXXOOXXooooXXooXX..XXOOXXXXOO##55<<<<5555<<##OOOOXXooooXXOOOO**========**==**OOUU",
"UUUUUUUUOOXXXXXX##==;;==;;llxxxx;;==**--==OOOOOOXXOOXXXXXXooooooooXXXXXXXXOO##,<<<<<55<<<<####OOXXXXXXooOOOO****====**==**OO..UU",
"UUUUUUUUOOXXXXXX##==;;==;;llxxxx;;==**--==OOOOOOXXOOXXXXXXooooooooXXXXXXXXOO##<<<<<<55<<<<####OOXXXXXXooOOOO****====**==**OO..UU",
"UUUUUUUUUUXXOOOOee==--==;;;;llOO##+OOOOO==**OOOOXXOOXXXX##ooXX..ooooXXXXXXOO##<<<<5555<<<<<<OOOOXXXXXX..##OO##==********OOOO..UU",
"UUUUUUUUUUXXOOOOee==--==;;;;llOO##++OOOO==**OOOOXXOOXXXX##ooXX..ooooXXXXXXOO##<<<<5555<<<<<<OOOOXXXXXX..##OO##==********OOOO..UU",
"UUUUUUUUUUUUXX00ii**====OOOOOO**--zx==**OO**OOOOXXOOXXXXXXooXXoooo88XXOOXXO+++55<<555555<<####OOXXXXXXoo22##OO**OO##OOOOOO..UUUU",
"UUUUUUUUUUUUXXqqii**====OOOOOO**--xx==**OO**OOOOXXOOXXXXXXooXXoooo88XXOOXXO+++55<<555555<<####OOXXXXXXoo22##OO**OO##OOOOOO..UUUU",
"UUUUUUUUUUUUUUiiii**==OO**==**;;xxccxx==**OOOOOOXXOOXXXX##ooXXooooOOXXXXXXOO##55<<<<5555<<####OOXXXXXXoo>>OO########OOOOOO..UUUU",
"UUUUUUUUUUUUUUiiii**==OO**==**;;xxccxx==**OOOOOOXXOOXXXX##ooXXooooOOXXXXXXOO##55<<<<5555<<####OOXXXXXXoo>>OO########OOOOOO..UUUU",
"UUUUUUUUUUUUUU%%ee**OOOO;;;;**==zzcczz====OOOOOOXXOOXXXXXX..XXooOOooXXXXXXOO##<<<<555555<<<<OOOOXXXXXXooOO####OO####OOOO..UUUUUU",
"UUUUUUUUUUUUUU%%ee**OOOO;;;;**==zzcczz====OOOOOOXXOOXXXXXX..XXooOOooXXXXXXOO##<<<<555555<<<<OOOOXXXXXXooOO####OO####OOOO..UUUUUU",
"UUUUUUUUUUUUUUUU$$$$OO==;;OOOOOOOOOOOOOOOO##OOOOXXOOXXXXXXooXX..ooOOXXXXXXOO##<<<<55vv55<<####OOXXXX##ooOOOO####OOOOOOooUUUUUUUU",
"UUUUUUUUUUUUUUUU$$$$OO==;;OOOOOOOOOOOOOOOO##OOOOXXOOXXXXXXooXX..ooOOXXXXXXOO##<,<<55vv55<<####OOXXXX##ooOOOO####OOOOOOooUUUUUUUU",
"UUUUUUUUUUUUUUUUUUUU##==OOOOOOOOOOOOOOOOOOOOOOOOXXOOXXXXXXooXXoooo88XXOOXXOOOOvv<<55vv55<<##+++OXXXXXXoo44**OOooOOOO....UUUUUUUU",
"UUUUUUUUUUUUUUUUUUUU##==OOOOOOOOOOOOOOOOOOOOOOOOXXOOXXXXXXooXXoooo88XXOOXXOOOOvv<<55vv55<<##+++OXXXXXXoo44**OOooOOOO....UUUUUUUU",
"UUUUUUUUUUUUUUUUUUUUUUOO##OOOO**==llcczz****ooOOXXOOXXXX##ooXX..oo22XXXXXXOO##XXOOOOOOOOOOXXXXXXXXXX##oo>>****OOOOooOOUUUUUUUUUU",
"UUUUUUUUUUUUUUUUUUUUUUOO##OOOO**==llcczz****ooOOXXOOXXXX##ooXX..oo22XXXXXXOO##XXOOOOOOOOOOXXXXXXXXXX##oo>>****OOOOooOOUUUUUUUUUU",
"UUUUUUUUUUUUUUUUUUUUUUOOooOO--==**--cczz====**OOXXOOXXXXXX..XXooooooXXXXXXXXOO##<<55<<55<<OOOOXXXXoo..oooo**OOOOooOOUUUUUUUUUUUU",
"UUUUUUUUUUUUUUUUUUUUUUOOooOO--==**--cczz====**OOXXOOXXXXXX..XXooooooXXXXXXXXOO##<<55<<55<<OOOOXXXXoo..oooo**OOOOooOOUUUUUUUUUUUU",
"UUUUUUUUUUUUUUUUUUUUUUOOOO;;;;OOOOOOOOOOOOOOOO##XXOOXXXXXXooXXooooOOooXXXXOO########<<OO######OOOOXXXXXXoo**OOOOOOOOUUUUUUUUUUUU",
"UUUUUUUUUUUUUUUUUUUUUUOOOO;;;;OOOOOOOOOOOOOOOO##XXOOXXXXXXooXXooooOOooXXXXOO########<<OO######OOOOXXXXXXoo**OOOOOOOOUUUUUUUUUUUU",
"UUUUUUUUUUUUUUUUUUUUUUUU**;;OOOOOOOOOOOOOOOO##OOOOOOXXXXXXoooooooo..ooXXXXOOOOOO############OOOOOOXXXXXXooOOOOooOOooUUUUUUUUUUUU",
"UUUUUUUUUUUUUUUUUUUUUUUU**;;OOOOOOOOOOOOOOOO##OOOOOOXXXXXXoooooooo..ooXXXXOOOOOO############OOOOOOXXXXXXooOOOOooOOooUUUUUUUUUUUU",
"UUUUUUUUUUUUUUUUUUUUUUUU**OO##OOOOooOOll==**ooOOOOOOoooo..ooooooXXXXooXXXXXXOO######<<OO<<OO##OOOOXXXXXX..OOooOO..UUUUUUUUUUUUUU",
"UUUUUUUUUUUUUUUUUUUUUUUU**OO##OOOOooOOll==**ooOOOOOOoooo..ooooooXXXXooXXXXXXOO######<<OO<<OO##OOOOXXXXXX..OOooOO..UUUUUUUUUUUUUU",
"UUUUUUUUUUUUUUUUUUUUUUUUOOOOooll--==oo==****ooOOOOOOXXXXooXX..ooXX....ooXXXXXXXXXXXXXXXXXXXXXXXXXXXX..oooo......UUUUUUUUUUUUUUUU",
"UUUUUUUUUUUUUUUUUUUUUUUUOOOOooll--==oo==****ooOOOOOOXXXXooXX..ooXX....ooXXXXXXXXXXXXXXXXXXXXXXXXXXXX..oooo......UUUUUUUUUUUUUUUU",
"UUUUUUUUUUUUUUUUUUUUUUUUOOOO**--****OOooOO******ooOOoooooooooooooo..OOOOOOOO##555555##55<<######OOXXXX......UUUUUUUUUUUUUUUUUUUU",
"UUUUUUUUUUUUUUUUUUUUUUUUOOOO**--****OOooOO******ooOOoooooooooooooo..OOOOOOOO##555555##55<<######OOXXXX......UUUUUUUUUUUUUUUUUUUU",
"UUUUUUUUUUUUUUUUUUUUUUUUOOOO******ooOOoo********OOoooooooo..oooo..XXOOXXXXOOXXOOXXXXXXXXXXXXXXooooooooUUUUUUUUUUUUUUUUUUUUUUUUUU",
"UUUUUUUUUUUUUUUUUUUUUUUUOOOO******ooOOoo********OOoooooooo..oooo..XXOOXXXXOOXXOOXXXXXXXXXXXXXXooooooooUUUUUUUUUUUUUUUUUUUUUUUUUU",
"UUUUUUUUUUUUUUUUUUUUUUUUUUooOOoo******OO****ooooXX..ooooooooooooXXXX..XXOOOO,<<<5555<<<<OOOOXXXXXXXXUUUUUUUUUUUUUUUUUUUUUUUUUUUU",
"UUUUUUUUUUUUUUUUUUUUUUUUUUooOOoo******OO****ooooXX..ooooooooooooXXXX..XXOOOO<<<<5555<<<<OOOOXXXXXXXXUUUUUUUUUUUUUUUUUUUUUUUUUUUU",
"UUUUUUUUUUUUUUUUUUUUUUUUUUUUUUOO******ooOOooOOXXOOXXXXXXXXXXoo..XXXX..nn######555555<<<<##OOXXXXXXXX11UUUUUUUUUUUUUUUUUUUUUUUUUU",
"UUUUUUUUUUUUUUUUUUUUUUUUUUUUUUOO******ooOOooOOXXOOXXXXXXXXXXoo..XXXX..nn######555555<<<<##OOXXXXXXXX11UUUUUUUUUUUUUUUUUUUUUUUUUU",
"UUUUUUUUUUUUUUUUUUUUUUUUUUUUUUUUUUUUUUUU55##OOOOOOOOOOOOXXXXXXXXXXXX..44OOOO+OXXOOXXXXXXXXXXXXXXXXOOUUUUUUUUUUUUUUUUUUUUUUUUUUUU",
"UUUUUUUUUUUUUUUUUUUUUUUUUUUUUUUUUUUUUUUU55##OOOOOOOOOOOOXXXXXXXXXXXX..44OOOO+OXXOOXXXXXXXXXXXXXXXXOOUUUUUUUUUUUUUUUUUUUUUUUUUUUU",
"UUUUUUUUUUUUUUUUUUUUUUUUUUUUUUUUUUUUUUUU5555<<<<##OOOOOOOOXXXXXXXX>>>>>>>>XX<<vv55vv<<<<<<<<####XX>>>>>>>>>>>>>>>>>>>>>>1111UUUU",
"UUUUUUUUUUUUUUUUUUUUUUUUUUUUUUUUUUUUUUUU5555<<<<##OOOOOOOOXXXXXXXX>>>>>>>>XX<<vv55vv<<<<<<<<####XX>>>>>>>>>>>>>>>>>>>>>>1111UUUU",
"UUUUUUUUUUUUUUUUUUUUUUUUUUUUUUUUUUUUUU444422221111>>>>>>>>######OOOOOO##55vv<<55vv<<OOOOOOOOOOOO##XXXX##################>>1111UU",
"UUUUUUUUUUUUUUUUUUUUUUUUUUUUUUUUUUUUUU444422221111>>>>>>>>######OOOOOO##55vv<<55vv<<OOOOOOOOOOOO##XXXX##################>>1111UU",
"UUUUUUUUUUUUUUUUUUUUUUUUUUUUUUUUUUUUUUUUUUUUUUUU4444442211>>>>>>##OO<<55vv<<vvvvvvvv5555<<<<<<OOOOOOXXOOOOOOOO######>>>>111111UU",
"UUUUUUUUUUUUUUUUUUUUUUUUUUUUUUUUUUUUUUUUUUUUUUUU4444442211>>>>>>##OO<<55vv<<vvvvvvvv5555<<<<<<OOOOOOXXOOOOOOOO######>>>>111111UU",
"UUUUUUUUUUUUUUUUUUUUUUUUUUUUUUUUUUUUUUUUUUUUUUUUUUUUUU1111111111>>>>##5555vvvv5555<<<<<<OOOOOOOO##OOXXOO##########>>>>>>>>1122UU",
"UUUUUUUUUUUUUUUUUUUUUUUUUUUUUUUUUUUUUUUUUUUUUUUUUUUUUU1111111111>>>>##5555vvvv5555<<<<<<OOOOOOOO##OOXXOO##########>>>>>>>>1122UU",
"UUUUUUUUUUUUUUUUUUUUUUUUUUUUUUUUUUUUUUUUUUUUUUUUUUUUUUUUUUUUUUUU1111<<55vv5555vv<<55vv555555<<<<OOOOXX######>>>>11>>>>111122UUUU",
"UUUUUUUUUUUUUUUUUUUUUUUUUUUUUUUUUUUUUUUUUUUUUUUUUUUUUUUUUUUUUUUU1111<<55vv5555vv<<55vv555555<<<<OOOOXX######>>>>11>>>>111122UUUU"
};
